<?xml version="1.0" standalone="no"?>
<!DOCTYPE svg PUBLIC "-//W3C//DTD SVG 20010904//EN"
 "http://www.w3.org/TR/2001/REC-SVG-20010904/DTD/svg10.dtd">
<svg version="1.0" xmlns="http://www.w3.org/2000/svg"
 width="2001.000000pt" height="2001.000000pt" viewBox="0 0 2001.000000 2001.000000"
 preserveAspectRatio="xMidYMid meet">

<g transform="translate(0.000000,2001.000000) scale(0.100000,-0.100000)"
fill="#000000" stroke="none">
<path d="M9838 14685 c-114 -22 -259 -71 -383 -129 -130 -62 -6281 -3612
-6405 -3697 -262 -179 -442 -407 -516 -656 -23 -75 -27 -108 -27 -218 -1 -91
4 -150 16 -198 68 -271 270 -526 572 -722 120 -79 6214 -3595 6331 -3653 148
-74 228 -96 349 -96 176 0 308 57 441 189 63 63 90 99 123 165 104 212 92 435
-35 620 -141 205 -194 334 -223 545 -15 107 -15 5993 0 6100 22 161 77 326
145 433 42 67 126 156 205 217 97 76 180 204 210 325 23 92 16 251 -14 345
-65 197 -210 351 -390 415 -80 29 -284 36 -399 15z"/>
<path d="M11230 13600 c-302 -78 -495 -328 -555 -720 -22 -143 -22 -5997 0
-6140 61 -397 254 -644 565 -721 72 -18 103 -21 215 -16 152 6 258 32 411 100
109 48 5020 2879 5177 2984 614 410 615 1036 2 1445 -113 75 -4954 2873 -5110
2953 -242 124 -504 166 -705 115z"/>
</g>
</svg>
